<svg width="561" height="466" viewBox="0 0 561 466" fill="none" xmlns="http://www.w3.org/2000/svg">
<rect x="19.5" y="15.5" width="523" height="433" stroke="#CDBA8D"/>
<path d="M81.4041 0.5H81.181L81.032 0.666027L40.8299 45.4581L0.627896 90.2502L0.5 90.3927V90.5842V378.287V378.482L0.631338 378.625L40.3548 421.981L80.0783 465.338L80.2269 465.5H80.4469H480.724H480.937L481.085 465.346L521.231 423.389L521.231 423.388L560.361 382.666L560.5 382.52V382.319V88.2871V88.0919L560.368 87.9484L520.166 44.3048L479.964 0.661244L479.815 0.5H479.596H81.4041Z" stroke="#CDBA8D"/>
<path d="M20 16L46 39.0001" stroke="#CDBA8D"/>
<path d="M542 16L516 39.5" stroke="#CDBA8D"/>
<path d="M20 448L42.5 425" stroke="#CDBA8D"/>
<path d="M542 448L520 425" stroke="#CDBA8D"/>
</svg>
