<svg width="203" height="214" viewBox="0 0 203 214" fill="none" xmlns="http://www.w3.org/2000/svg">
<path d="M60.6828 37.5516L60.9024 175.753L181.609 106.799L60.6828 37.5516ZM58.3404 180.218L58.1208 33.0864L186.806 106.872L58.3404 180.218Z" fill="#C4B188"/>
<path d="M20.13 106.506L140.983 175.826L140.837 37.5516L20.13 106.506ZM143.618 180.218L14.9328 106.433L143.399 33.0864L143.618 180.218Z" fill="#C4B188"/>
<path d="M59.5116 107.97H0V105.335H59.5116V107.97Z" fill="#C4B188"/>
<path d="M202.544 107.97H143.106V105.408H202.544V107.97Z" fill="#C4B188"/>
<path d="M102.407 59.4384H99.8448L100.064 0H102.626L102.407 59.4384Z" fill="#C4B188"/>
<path d="M101.821 213.378L99.2592 213.305L99.4788 153.866H102.041L101.821 213.378Z" fill="#C4B188"/>
<path d="M90.4752 158.917L100.723 176.485L111.191 158.698L138.494 174.362L119.243 143.984L120.341 143.326V142.008L161.772 142.154L151.451 124.074L180.145 106.652L151.304 89.5236L161.772 71.2968L119.828 71.37V70.0524L118.877 69.3204L137.689 39.3084L111.85 54.0948L101.236 35.502L90.036 54.2412L63.2448 39.0156L82.35 69.4668L81.252 70.1256V71.4432L38.5764 70.8576L49.2636 89.8164L22.1064 106.652L49.7028 123.488L39.2352 141.715L81.3984 141.862V143.179L82.4964 143.838L63.3912 174.362L90.4752 158.917ZM146.18 181.682L112.069 162.138L100.65 181.536L89.4504 162.358L60.1704 179.047L59.5116 177.949L58.4136 177.29L79.056 144.35L34.9164 144.204L35.868 142.301L46.1892 124.367L17.202 106.652L45.8232 88.8648L34.1112 68.1492L78.9096 68.7348L58.3404 35.9412L59.4384 35.2824L60.0972 34.1844L89.0844 50.8008L101.309 30.4512L112.801 50.5812L140.91 34.5504L141.569 35.6484L142.667 36.3072L122.39 68.6616L166.457 68.5884L155.038 88.4988L185.342 106.579L155.111 124.879L166.384 144.643L122.83 144.497L146.18 181.682Z" fill="#C4B188"/>
<path d="M111.044 128.246H88.7916L109.068 87.4741L90.6216 87.4009V84.8389L113.24 84.9121L92.964 125.684H111.044V128.246Z" fill="#C4B188"/>
<path d="M112.069 30.2317L109.58 29.8657L110.532 22.9849L113.094 23.3509L112.069 30.2317Z" fill="#C4B188"/>
<path d="M110.02 46.3357L107.458 45.9697L109.214 32.3545L111.776 32.7205L110.02 46.3357Z" fill="#C4B188"/>
<path d="M121.439 34.8431L118.95 34.1843L121.366 24.8879L123.854 25.5467L121.439 34.8431Z" fill="#C4B188"/>
<path d="M117.852 49.6297L115.363 49.0441L118.584 36.1609L121.073 36.7465L117.852 49.6297Z" fill="#C4B188"/>
<path d="M131.687 35.868L129.271 34.8432L132.053 28.4749L134.468 29.4997L131.687 35.868Z" fill="#C4B188"/>
<path d="M128.027 44.5056L125.684 43.554L128.32 37.1855L130.735 38.2103L128.027 44.5056Z" fill="#C4B188"/>
<path d="M163.236 60.7561L161.552 58.7065L166.969 54.3145L168.58 56.3641L163.236 60.7561Z" fill="#C4B188"/>
<path d="M150.499 70.8577L148.889 68.8813L159.576 60.3169L161.186 62.2933L150.499 70.8577Z" fill="#C4B188"/>
<path d="M154.598 54.9001L152.768 53.1432L159.503 46.2625L161.333 48.0193L154.598 54.9001Z" fill="#C4B188"/>
<path d="M143.765 65.6603L141.935 63.8303L151.378 54.4607L153.208 56.2907L143.765 65.6603Z" fill="#C4B188"/>
<path d="M148.742 46.4087L146.62 44.8715L150.646 39.2351L152.768 40.7723L148.742 46.4087Z" fill="#C4B188"/>
<path d="M143.179 53.9483L141.056 52.4843L145.156 46.9211L147.205 48.4583L143.179 53.9483Z" fill="#C4B188"/>
<path d="M172.752 78.1043L171.8 75.6887L178.242 73.1267L179.194 75.5423L172.752 78.1043Z" fill="#C4B188"/>
<path d="M157.746 84.3264L156.794 81.9108L169.458 76.7136L170.483 79.1292L157.746 84.3264Z" fill="#C4B188"/>
<path d="M173.411 88.4988L172.752 86.01L182.048 83.448L182.707 85.9368L173.411 88.4988Z" fill="#C4B188"/>
<path d="M158.844 92.8175L158.112 90.3287L170.849 86.6687L171.581 89.1575L158.844 92.8175Z" fill="#C4B188"/>
<path d="M177.656 97.8684L177.364 95.3064L184.244 94.5012L184.537 97.0632L177.656 97.8684Z" fill="#C4B188"/>
<path d="M168.36 99.1128L167.994 96.5508L174.802 95.6724L175.168 98.2344L168.36 99.1128Z" fill="#C4B188"/>
<path d="M170.922 68.076L169.604 65.88L175.46 62.2932L176.851 64.416L170.922 68.076Z" fill="#C4B188"/>
<path d="M164.407 71.5163L163.382 69.1739L167.774 67.1975L168.799 69.5399L164.407 71.5163Z" fill="#C4B188"/>
<path d="M110.678 190.54L109.654 183.659L112.216 183.293L113.24 190.174L110.678 190.54Z" fill="#C4B188"/>
<path d="M109.361 181.097L107.531 167.482L110.093 167.189L111.923 180.804L109.361 181.097Z" fill="#C4B188"/>
<path d="M121.512 188.636L119.096 179.267L121.585 178.608L124.001 187.978L121.512 188.636Z" fill="#C4B188"/>
<path d="M118.657 177.364L115.51 164.48L117.998 163.822L121.219 176.778L118.657 177.364Z" fill="#C4B188"/>
<path d="M132.199 185.05L129.418 178.681L131.76 177.656L134.542 184.025L132.199 185.05Z" fill="#C4B188"/>
<path d="M128.466 176.266L125.831 169.97L128.173 168.946L130.808 175.314L128.466 176.266Z" fill="#C4B188"/>
<path d="M167.042 159.137L161.699 154.745L163.309 152.768L168.726 157.16L167.042 159.137Z" fill="#C4B188"/>
<path d="M159.722 153.207L148.962 144.643L150.572 142.594L161.333 151.158L159.722 153.207Z" fill="#C4B188"/>
<path d="M159.649 167.262L152.915 160.381L154.745 158.551L161.479 165.432L159.649 167.262Z" fill="#C4B188"/>
<path d="M151.451 159.064L142.081 149.694L143.911 147.864L153.281 157.234L151.451 159.064Z" fill="#C4B188"/>
<path d="M150.792 174.289L146.766 168.58L148.889 167.116L152.915 172.752L150.792 174.289Z" fill="#C4B188"/>
<path d="M145.229 166.603L141.203 161.04L143.326 159.503L147.352 165.066L145.229 166.603Z" fill="#C4B188"/>
<path d="M178.388 140.398L171.947 137.762L172.898 135.42L179.34 137.982L178.388 140.398Z" fill="#C4B188"/>
<path d="M169.604 136.811L156.941 131.54L157.892 129.198L170.556 134.395L169.604 136.811Z" fill="#C4B188"/>
<path d="M182.122 130.003L172.898 127.441L173.557 124.952L182.854 127.514L182.122 130.003Z" fill="#C4B188"/>
<path d="M170.995 126.856L158.258 123.122L158.917 120.707L171.727 124.367L170.995 126.856Z" fill="#C4B188"/>
<path d="M184.391 118.95L177.51 118.218L177.803 115.656L184.684 116.388L184.391 118.95Z" fill="#C4B188"/>
<path d="M174.948 117.852L168.14 116.974L168.506 114.412L175.314 115.29L174.948 117.852Z" fill="#C4B188"/>
<path d="M175.607 151.231L169.678 147.571L171.068 145.375L176.998 149.035L175.607 151.231Z" fill="#C4B188"/>
<path d="M167.848 146.254L163.456 144.35L164.554 141.935L168.946 143.911L167.848 146.254Z" fill="#C4B188"/>
<path d="M89.5236 30.2317L88.4988 23.3509L91.0608 22.9849L92.0856 29.8657L89.5236 30.2317Z" fill="#C4B188"/>
<path d="M91.6464 46.3357L89.8164 32.7205L92.3784 32.3545L94.2084 45.9697L91.6464 46.3357Z" fill="#C4B188"/>
<path d="M80.154 34.8431L77.7384 25.5467L80.2272 24.8879L82.6428 34.1843L80.154 34.8431Z" fill="#C4B188"/>
<path d="M83.7408 49.6297L80.5932 36.7465L83.082 36.1609L86.2296 49.0441L83.7408 49.6297Z" fill="#C4B188"/>
<path d="M69.9792 35.868L67.1976 29.4997L69.54 28.4749L72.3216 34.8432L69.9792 35.868Z" fill="#C4B188"/>
<path d="M73.566 44.5056L70.9308 38.2103L73.2732 37.1855L75.9084 43.554L73.566 44.5056Z" fill="#C4B188"/>
<path d="M38.43 60.7561L33.0132 56.3641L34.6968 54.3145L40.0404 58.7065L38.43 60.7561Z" fill="#C4B188"/>
<path d="M51.1668 70.8577L40.4064 62.2933L42.0168 60.3169L52.7772 68.8813L51.1668 70.8577Z" fill="#C4B188"/>
<path d="M46.9944 54.9001L40.26 48.0193L42.09 46.2625L48.8244 53.1432L46.9944 54.9001Z" fill="#C4B188"/>
<path d="M57.828 65.6603L48.4584 56.2907L50.2884 54.4607L59.658 63.8303L57.828 65.6603Z" fill="#C4B188"/>
<path d="M52.8504 46.4087L48.8244 40.6991L50.9472 39.2351L54.9732 44.8715L52.8504 46.4087Z" fill="#C4B188"/>
<path d="M58.4868 53.9483L54.3876 48.4583L56.5104 46.9211L60.5364 52.4843L58.4868 53.9483Z" fill="#C4B188"/>
<path d="M28.8408 78.1043L22.3992 75.5423L23.3508 73.1267L29.7924 75.6887L28.8408 78.1043Z" fill="#C4B188"/>
<path d="M43.8468 84.3264L31.1832 79.056L32.1348 76.7136L44.7984 81.9108L43.8468 84.3264Z" fill="#C4B188"/>
<path d="M28.182 88.4988L18.8856 85.9368L19.6176 83.448L28.8408 86.01L28.182 88.4988Z" fill="#C4B188"/>
<path d="M42.822 92.8175L30.012 89.1575L30.744 86.6687L43.4808 90.3287L42.822 92.8175Z" fill="#C4B188"/>
<path d="M33.2328 99.0396L26.4252 98.2344L26.7912 95.6724L33.5988 96.5508L33.2328 99.0396Z" fill="#C4B188"/>
<path d="M30.6708 68.076L24.7416 64.416L26.1324 62.22L32.0616 65.88L30.6708 68.076Z" fill="#C4B188"/>
<path d="M37.1856 71.5163L32.7936 69.5399L33.8916 67.1975L38.2836 69.1739L37.1856 71.5163Z" fill="#C4B188"/>
<path d="M90.9144 190.54L88.3524 190.174L89.3772 183.293L91.9392 183.659L90.9144 190.54Z" fill="#C4B188"/>
<path d="M92.232 181.097L89.67 180.804L91.5 167.189L94.062 167.482L92.232 181.097Z" fill="#C4B188"/>
<path d="M80.0808 188.636L77.592 187.978L80.0076 178.608L82.4964 179.267L80.0808 188.636Z" fill="#C4B188"/>
<path d="M82.9356 177.364L80.4468 176.778L83.5944 163.822L86.0832 164.48L82.9356 177.364Z" fill="#C4B188"/>
<path d="M69.3936 185.05L67.0512 184.025L69.8328 177.656L72.1752 178.681L69.3936 185.05Z" fill="#C4B188"/>
<path d="M73.1268 176.266L70.7844 175.314L73.4196 168.946L75.8352 169.97L73.1268 176.266Z" fill="#C4B188"/>
<path d="M34.5504 159.137L32.8668 157.16L38.2836 152.768L39.894 154.745L34.5504 159.137Z" fill="#C4B188"/>
<path d="M41.8704 153.207L40.26 151.158L51.0204 142.594L52.6308 144.643L41.8704 153.207Z" fill="#C4B188"/>
<path d="M41.9436 167.262L40.1136 165.432L46.848 158.551L48.7512 160.381L41.9436 167.262Z" fill="#C4B188"/>
<path d="M50.142 159.064L48.312 157.234L57.7548 147.864L59.5848 149.694L50.142 159.064Z" fill="#C4B188"/>
<path d="M50.8008 174.289L48.7512 172.752L52.7772 167.116L54.8268 168.58L50.8008 174.289Z" fill="#C4B188"/>
<path d="M56.364 166.603L54.2412 165.066L58.3404 159.503L60.39 161.04L56.364 166.603Z" fill="#C4B188"/>
<path d="M23.2044 140.398L22.2528 137.982L28.6944 135.42L29.646 137.762L23.2044 140.398Z" fill="#C4B188"/>
<path d="M31.9884 136.811L31.0368 134.395L43.7004 129.198L44.7252 131.54L31.9884 136.811Z" fill="#C4B188"/>
<path d="M19.4712 130.003L18.8124 127.514L28.0356 124.952L28.7676 127.441L19.4712 130.003Z" fill="#C4B188"/>
<path d="M30.5976 126.856L29.8656 124.367L42.6756 120.707L43.4076 123.122L30.5976 126.856Z" fill="#C4B188"/>
<path d="M26.6448 117.852L26.352 115.29L33.1596 114.412L33.4524 116.974L26.6448 117.852Z" fill="#C4B188"/>
<path d="M25.986 151.231L24.6684 149.035L30.5244 145.375L31.9152 147.571L25.986 151.231Z" fill="#C4B188"/>
<path d="M33.7452 146.254L32.7204 143.911L37.1124 141.935L38.1372 144.35L33.7452 146.254Z" fill="#C4B188"/>
<path d="M107.458 107.897H93.9888V105.335H107.458V107.897Z" fill="#C4B188"/>
<path d="M107.458 107.897H93.9888V105.335H107.458V107.897Z" fill="#C4B188"/>
</svg>
