<svg viewBox="0 0 563 71" fill="none" xmlns="http://www.w3.org/2000/svg">
<path d="M0.184021 68.5408V64.1264L37.3504 6.59679H11.4336C11.0064 6.59679 10.5792 6.73917 10.2944 7.02397C10.0096 7.30877 9.86722 7.73596 9.72482 8.30556L8.30082 17.5616H2.46242V1.61279H49.4544V6.16957L12.288 63.4144H40.6256C41.0528 63.4144 41.48 63.272 41.7648 62.8448C42.0496 62.4176 42.192 62.1327 42.3344 61.5631L44.0432 50.0288H49.8816V68.5408H0.184021Z" fill="#CDBA8D"/>
<path d="M61.8432 68.5407V64.2687L66.9696 63.8415C67.6816 63.8415 68.2512 63.5567 68.536 63.1295C68.9632 62.7023 69.1056 62.2751 69.1056 61.7055V8.59035C69.1056 8.16315 68.9632 7.59355 68.536 7.16635C68.1088 6.73915 67.6816 6.45435 66.9696 6.45435L61.8432 6.02713V1.75513H110.259V16.5648H104.278L102.712 8.44794C102.712 8.02074 102.427 7.59355 102.142 7.16635C101.858 6.73915 101.43 6.59676 101.003 6.59676H79.3584V31.3743H94.3104C94.7376 31.3743 95.1648 31.232 95.592 30.8048C96.0192 30.3776 96.1616 30.0927 96.1616 29.6655L97.1584 22.8303H102.285V45.0447H97.1584L96.1616 38.0671C96.1616 37.6399 96.0192 37.3551 95.592 36.9279C95.1648 36.5007 94.7376 36.3583 94.3104 36.3583H79.3584V63.8415H104.563C104.99 63.8415 105.418 63.5567 105.702 63.1295C106.13 62.7023 106.272 62.2751 106.272 61.8479L108.123 52.0223H113.534V68.6831L61.8432 68.5407Z" fill="#CDBA8D"/>
<path d="M124.499 68.5408V64.2688L130.338 63.8415C131.05 63.8415 131.619 63.5567 131.904 63.1295C132.189 62.7023 132.474 62.2751 132.474 61.7055V8.59035C132.474 8.16315 132.331 7.59355 131.904 7.16635C131.619 6.73915 131.05 6.45435 130.338 6.45435L124.499 6.02713V1.75513H149.989V6.02713L144.72 6.45435C144.008 6.45435 143.438 6.73915 143.154 7.16635C142.726 7.59355 142.584 8.16315 142.584 8.59035V63.6991H163.517C163.944 63.6991 164.371 63.5567 164.941 63.1295C165.368 62.8447 165.653 62.4176 165.795 61.9904L167.362 50.0288H173.2V68.5408H124.499Z" fill="#CDBA8D"/>
<path d="M233.862 35.2191C233.862 29.9503 233.293 25.5359 232.011 21.8335C230.73 18.1311 229.021 15.1408 226.742 12.8624C224.464 10.584 221.758 8.87515 218.626 7.87835C215.493 6.88155 211.933 6.31194 207.946 6.31194H200.398V63.6991L208.515 63.5568C212.36 63.5568 215.778 62.9872 218.91 61.9904C222.043 60.9936 224.749 59.2848 226.885 57.0064C229.021 54.728 230.872 51.7375 232.011 48.1775C233.293 44.6175 233.862 40.3455 233.862 35.2191ZM245.254 34.9344C245.254 37.9248 244.97 40.7728 244.4 43.4784C243.83 46.184 242.976 48.8896 241.837 51.4528C240.698 54.016 239.131 56.2944 237.28 58.288C235.429 60.424 233.293 62.1327 230.73 63.6991C228.166 65.2655 225.176 66.4047 221.901 67.2591C218.626 68.1135 214.781 68.5408 210.651 68.5408H182.883V64.2688L188.152 63.8415C188.864 63.8415 189.434 63.5567 189.718 63.1295C190.146 62.7023 190.288 62.2751 190.288 61.7055V8.59035C190.288 8.16315 190.146 7.59355 189.718 7.16635C189.291 6.73915 188.864 6.45435 188.152 6.45435L182.883 6.02713V1.75513H208.658C213.926 1.75513 218.768 2.46716 223.182 3.74876C227.597 5.03036 231.584 7.02395 234.859 9.87195C238.134 12.5775 240.698 15.9951 242.549 20.2671C244.258 24.2543 245.254 29.2384 245.254 34.9344Z" fill="#CDBA8D"/>
<path d="M285.411 12.8624L275.728 39.064H295.237L285.411 12.8624ZM297.088 68.5408V64.2688L302.784 63.8415C303.069 63.8415 303.354 63.5567 303.638 63.1296C303.923 62.7024 303.923 62.2752 303.781 62.1328L296.946 43.9056H273.877L267.184 61.848C267.184 61.9904 267.184 62.2752 267.184 62.4175C267.184 62.7024 267.326 62.8447 267.469 63.1296C267.611 63.2719 267.754 63.5567 268.038 63.6991C268.181 63.8415 268.466 63.8415 268.608 63.8415L274.446 64.2688V68.5408H254.368V64.2688L260.206 62.9871L283.418 0.0463867H290.965L314.034 61.5631C314.318 62.2751 314.461 62.7023 314.746 62.9871C314.888 63.2719 315.458 63.4144 316.17 63.5568L320.584 64.2688V68.5408H297.088Z" fill="#CDBA8D"/>
<path d="M406.024 49.6016C406.024 45.0448 404.742 41.7696 402.037 39.6336C399.331 37.4976 395.344 36.5008 390.075 36.5008C389.221 36.5008 388.366 36.5008 387.37 36.6432C386.373 36.6432 385.376 36.7856 384.522 36.7856C383.667 36.7856 382.813 36.928 382.243 36.928C381.531 36.928 381.246 37.0704 381.104 37.0704V63.4144C381.958 63.4144 382.67 63.5568 383.525 63.5568C384.237 63.5568 384.806 63.6992 385.518 63.6992C386.23 63.6992 386.8 63.6992 387.227 63.6992C390.787 63.6992 393.635 63.4144 396.056 62.8448C398.477 62.2752 400.328 61.4208 401.894 60.2816C403.318 59.1424 404.458 57.7183 405.17 55.8671C405.739 54.0159 406.024 52.0224 406.024 49.6016ZM402.037 18.416C402.037 14.4288 400.755 11.4384 398.192 9.44479C395.629 7.30879 391.784 6.31198 386.658 6.31198C386.088 6.31198 385.518 6.31198 384.949 6.31198C384.379 6.31198 383.81 6.31198 383.24 6.45438C382.67 6.45438 382.243 6.45439 381.816 6.59679C381.389 6.59679 381.104 6.59679 380.962 6.59679V31.8016C381.389 31.8016 381.816 31.8016 382.386 31.8016C382.813 31.8016 383.098 31.8016 383.525 31.8016H384.664C387.939 31.8016 390.645 31.5168 392.923 30.9472C395.202 30.3776 396.91 29.5232 398.334 28.384C399.758 27.2448 400.613 25.8208 401.325 24.112C401.752 22.4032 402.037 20.552 402.037 18.416ZM416.846 48.7472C416.846 51.4528 416.419 53.8736 415.707 55.8671C414.995 57.8607 413.856 59.712 412.574 61.136C411.293 62.56 409.726 63.8416 408.018 64.696C406.309 65.6928 404.458 66.4048 402.606 66.9744C400.755 67.544 398.904 67.9712 396.91 68.1136C394.917 68.3984 393.066 68.3984 391.357 68.3984H363.446V64.1264L368.715 63.6992C369.427 63.6992 369.997 63.4143 370.282 62.9871C370.566 62.5599 370.851 62.1327 370.851 61.5631V8.44797C370.851 8.02077 370.709 7.45117 370.282 7.02397C369.997 6.59678 369.427 6.31198 368.715 6.31198L363.446 5.88479V1.61279H390.075C394.062 1.61279 397.48 2.03998 400.328 2.75198C403.176 3.46398 405.454 4.60319 407.306 5.88479C409.157 7.30879 410.438 9.01756 411.293 11.0112C412.147 13.0048 412.574 15.2832 412.574 17.704C412.574 20.2672 412.147 22.2608 411.15 24.112C410.154 25.8208 409.014 27.3872 407.59 28.5264C406.166 29.6656 404.6 30.6624 402.891 31.3744C401.182 32.0864 399.616 32.656 398.192 33.0832C400.47 33.0832 402.606 33.368 404.885 33.9376C407.021 34.5072 409.014 35.3616 410.866 36.6432C412.574 37.9248 413.998 39.4912 415.138 41.4848C416.277 43.4784 416.846 45.8992 416.846 48.7472Z" fill="#CDBA8D"/>
<path d="M457.003 12.8624L447.32 39.064H466.829L457.003 12.8624ZM468.68 68.5408V64.2688L474.376 63.8415C474.661 63.8415 474.946 63.5567 475.23 63.1296C475.515 62.7024 475.515 62.2752 475.373 62.1328L468.538 43.9056H445.469L438.776 61.848C438.776 61.9904 438.776 62.2752 438.776 62.4175C438.776 62.7024 438.918 62.8447 439.061 63.1296C439.203 63.2719 439.346 63.5567 439.63 63.6991C439.773 63.8415 440.058 63.8415 440.2 63.8415L446.038 64.2688V68.5408H425.96V64.2688L431.798 62.9871L455.01 0.0463867H462.557L485.626 61.5631C485.91 62.2751 486.053 62.7023 486.338 62.9871C486.48 63.2719 487.05 63.4144 487.762 63.5568L492.176 64.2688V68.5408H468.68Z" fill="#CDBA8D"/>
<path d="M540.734 19.8399C540.734 17.7039 540.45 15.8527 539.738 14.1439C539.026 12.4351 538.029 11.1535 536.605 10.0143C535.181 8.87508 533.33 8.02065 531.194 7.45105C528.915 6.88145 526.352 6.59669 523.077 6.59669H518.52V33.9375C518.52 33.9375 518.805 33.9375 519.232 33.9375C519.659 33.9375 520.086 33.9375 520.514 33.9375C521.083 33.9375 521.51 33.9375 522.08 33.9375C522.65 33.9375 523.077 33.9375 523.504 33.9375C526.21 33.9375 528.773 33.6527 530.909 33.2255C533.045 32.7983 534.896 31.9439 536.32 30.8047C537.744 29.6655 538.883 28.2415 539.595 26.3903C540.307 24.8239 540.734 22.5455 540.734 19.8399ZM562.664 68.8255C562.379 68.8255 562.094 68.9679 561.667 69.1103C561.24 69.2527 560.813 69.3951 560.101 69.5375C559.531 69.6799 558.819 69.8223 558.107 69.9647C557.395 70.1071 556.683 70.1071 555.971 70.1071C552.981 70.1071 550.56 69.6799 548.709 68.8255C546.858 67.9711 545.291 66.6895 544.152 65.2655C543.013 63.8415 542.158 62.1327 541.446 60.2815C540.734 58.4303 540.165 56.4367 539.595 54.4431C539.026 52.4495 538.456 50.5983 537.744 48.6047C537.032 46.7535 536.178 45.0447 534.896 43.6207C533.757 42.1967 532.19 40.9151 530.197 40.0607C528.346 39.2063 525.782 38.7791 522.792 38.7791C522.222 38.7791 521.795 38.7791 521.226 38.7791C520.656 38.7791 520.229 38.7791 519.802 38.9215C519.374 38.9215 519.09 38.9215 518.805 39.0639C518.52 39.0639 518.378 39.0639 518.378 39.0639V61.8479C518.378 62.2751 518.52 62.8447 518.947 63.2719C519.232 63.6991 519.802 63.9839 520.514 63.9839L525.782 64.4111V68.6831H501.005V64.4111L506.131 63.9839C506.843 63.9839 507.413 63.6991 507.698 63.2719C508.125 62.8447 508.267 62.4175 508.267 61.8479V8.73269C508.267 8.30549 508.125 7.73589 507.698 7.30869C507.27 6.88149 506.843 6.59669 506.131 6.59669L501.005 6.16946V1.89746H527.064C530.909 1.89746 534.326 2.18228 537.317 2.89428C540.307 3.46388 542.87 4.46069 545.006 5.88469C547.142 7.30869 548.709 9.15988 549.848 11.4383C550.987 13.7167 551.557 16.4223 551.557 19.6975C551.557 22.2607 551.13 24.5391 550.133 26.5327C549.278 28.3839 547.997 29.9503 546.573 31.3743C545.006 32.6559 543.298 33.7951 541.304 34.5071C539.31 35.3615 537.317 35.9311 535.181 36.5007C537.886 37.2127 540.022 38.0671 541.589 39.2063C543.155 40.3455 544.437 41.6271 545.434 43.1935C546.43 44.6175 547.142 46.1839 547.57 47.8927C547.997 49.4591 548.424 51.1679 548.851 52.7343C549.278 54.3007 549.563 55.8671 550.133 57.2911C550.56 58.7151 551.272 59.9967 552.269 61.1359C553.266 62.2751 554.547 63.1295 556.114 63.8415C557.822 64.5535 559.958 64.8383 562.664 64.8383V68.8255Z" fill="#CDBA8D"/>
</svg>
